<svg xmlns="http://www.w3.org/2000/svg" xmlns:xlink="http://www.w3.org/1999/xlink" width="640" height="360" version="1.1" viewBox="0 0 640 360" style="background:#fff"><title>madkudu</title><desc>Created with Sketch.</desc><defs><linearGradient id="linearGradient-1" x1="50%" x2="50%" y1="100%" y2="8.717%"><stop offset="0%" stop-color="#FFF"/><stop offset="100%" stop-color="#0F3C66"/></linearGradient><rect id="path-2" width="640" height="360" x="0" y="0"/></defs><g id="Ships" fill="none" fill-rule="evenodd" stroke="none" stroke-width="1"><g id="madkudu"><g id="ship-madkudu"><g id="Group-3" opacity=".1"><mask id="mask-3" fill="#fff"><use xlink:href="#path-2"/></mask><use id="Mask" fill="url(#linearGradient-1)" xlink:href="#path-2"/></g><g id="Group-2" fill="#0F3C66" transform="translate(75.000000, 117.000000)"><path id="path3046" d="M73.1318,126.027264 C70.6328,117.378703 64.0724,110.124352 56.903,104.86711 C47.292,97.9979451 34.7732,99.4507692 24.1528,95.4523626 C15.5022,89.0451429 23.7762,81.9764066 29.5932,77.5886264 C42.5894,66.3512198 40.992,45.3934286 30.6432,32.9697582 C23.73,24.0644066 9.1098,18.087033 1.9012,15.5526154 C-8.9628,4.72132967 30.8588,-4.75621978 17.7114,2.60838462 C13.265,4.50640659 8.7094,8.05263736 16.9204,10.1907033 C26.516,13.154967 49.2408,31.6620769 51.8672,50.0268352 C53.8832,59.7723407 51.1588,70.7948242 47.5356,79.8522967 C71.1942,87.3104066 81.3554,104.100923 92.6478,125.823505 C92.6016,125.785824 87.2942,126.14589 73.1318,126.027264 Z"/><path id="path3046-4" d="M117.5202,126.72367 C120.0206,118.07511 126.5796,110.820758 133.749,105.563516 C143.36,98.6957473 155.8788,100.147176 166.4992,96.1487692 C175.1512,89.7415495 166.8772,82.6728132 161.0602,78.2864286 C148.064,67.0476264 149.66,46.0912308 160.0088,33.6661648 C166.922,24.7608132 181.5422,18.7834396 188.7508,16.249022 C199.6162,5.41913187 159.7932,-4.05841758 172.942,3.30618681 C177.387,5.20420879 181.944,8.74904396 173.7316,10.8871099 C164.1374,13.8513736 141.4112,32.3598791 138.7848,50.7246374 C136.7688,60.4687473 139.4932,71.4912308 143.1164,80.5500989 C119.4578,88.0068132 109.2966,104.798725 98.0056,126.519912 C98.0504,126.483626 103.3578,126.843692 117.5202,126.72367 Z"/><path id="Shape" d="M210.0182,40.9386593 C210.8246,42.4124176 211.7542,44.2322857 212.807,46.3982637 C213.8598,48.5642418 214.9574,50.9088571 216.0998,53.4321099 C217.2422,55.9553626 218.3734,58.5344396 219.4934,61.1693407 C220.6134,63.8042418 221.6662,66.2828352 222.6518,68.6051209 C223.6374,66.2828352 224.6902,63.8042418 225.8102,61.1693407 C226.9302,58.5344396 228.0614,55.9553626 229.2038,53.4321099 C230.3462,50.9088571 231.4438,48.5642418 232.4966,46.3982637 C233.5494,44.2322857 234.479,42.4124176 235.2854,40.9386593 L244.8278,40.9386593 C245.2758,44.0201538 245.6902,47.4700879 246.071,51.2884615 C246.4518,55.1068352 246.7878,59.0815165 247.079,63.2125055 C247.3702,67.3434945 247.639,71.4856484 247.8854,75.638967 C248.1318,79.7922857 248.3446,83.699978 248.5238,87.362044 L238.3094,87.362044 C238.175,82.8514505 237.9958,77.9389231 237.7718,72.6244615 C237.5478,67.31 237.2118,61.9508791 236.7638,56.5470989 C235.9574,58.4227912 235.0614,60.4994505 234.0758,62.7770769 C233.0902,65.0547033 232.1158,67.3323297 231.1526,69.609956 C230.1894,71.8875824 229.2598,74.0647253 228.3638,76.1413846 C227.4678,78.218044 226.7062,79.9932527 226.079,81.467011 L218.7542,81.467011 C218.127,79.9932527 217.3654,78.218044 216.4694,76.1413846 C215.5734,74.0647253 214.6438,71.8875824 213.6806,69.609956 C212.7174,67.3323297 211.743,65.0547033 210.7574,62.7770769 C209.7718,60.4994505 208.8758,58.4227912 208.0694,56.5470989 C207.6214,61.9508791 207.2854,67.31 207.0614,72.6244615 C206.8374,77.9389231 206.6582,82.8514505 206.5238,87.362044 L196.3094,87.362044 C196.4886,83.699978 196.7014,79.7922857 196.9478,75.638967 C197.1942,71.4856484 197.463,67.3434945 197.7542,63.2125055 C198.0454,59.0815165 198.3814,55.1068352 198.7622,51.2884615 C199.143,47.4700879 199.5574,44.0201538 200.0054,40.9386593 L210.0182,40.9386593 Z"/><path id="Shape" d="M270.767,80.3951868 C271.7526,80.3951868 272.6934,80.3728571 273.5894,80.3281978 C274.4854,80.2835385 275.2022,80.2165495 275.7398,80.1272308 L275.7398,72.5574725 C275.3366,72.4681538 274.7318,72.3788352 273.9254,72.2895165 C273.119,72.2001978 272.3798,72.1555385 271.7078,72.1555385 C270.767,72.1555385 269.8822,72.2113626 269.0534,72.323011 C268.2246,72.4346593 267.4966,72.6467912 266.8694,72.9594066 C266.2422,73.272022 265.7494,73.6962857 265.391,74.2321978 C265.0326,74.7681099 264.8534,75.438 264.8534,76.2418681 C264.8534,77.8049451 265.3798,78.8879341 266.4326,79.4908352 C267.4854,80.0937363 268.9302,80.3951868 270.767,80.3951868 Z M269.9606,51.187978 C272.9174,51.187978 275.3814,51.5229231 277.3526,52.1928132 C279.3238,52.8627033 280.903,53.8228791 282.0902,55.0733407 C283.2774,56.3238022 284.1174,57.8422198 284.6102,59.6285934 C285.103,61.414967 285.3494,63.4023077 285.3494,65.5906154 L285.3494,86.3572088 C283.9158,86.6698242 281.9222,87.0382637 279.3686,87.4625275 C276.815,87.8867912 273.7238,88.0989231 270.095,88.0989231 C267.8102,88.0989231 265.7382,87.897956 263.879,87.496022 C262.0198,87.0940879 260.4182,86.4353626 259.0742,85.5198462 C257.7302,84.6043297 256.6998,83.4096923 255.983,81.9359341 C255.2662,80.4621758 254.9078,78.6534725 254.9078,76.5098242 C254.9078,74.4554945 255.3222,72.7137802 256.151,71.2846813 C256.9798,69.8555824 258.0886,68.7167692 259.4774,67.8682418 C260.8662,67.0197143 262.4566,66.4056484 264.2486,66.026044 C266.0406,65.6464396 267.8998,65.4566374 269.8262,65.4566374 C271.1254,65.4566374 272.279,65.5124615 273.287,65.6241099 C274.295,65.7357582 275.1126,65.8809011 275.7398,66.0595385 L275.7398,65.1216923 C275.7398,63.4246374 275.2246,62.0625275 274.1942,61.0353626 C273.1638,60.0081978 271.3718,59.4946154 268.8182,59.4946154 C267.1158,59.4946154 265.4358,59.6174286 263.7782,59.8630549 C262.1206,60.1086813 260.687,60.4547912 259.4774,60.9013846 L258.2006,52.8627033 C258.783,52.6840659 259.511,52.4942637 260.3846,52.2932967 C261.2582,52.0923297 262.2102,51.9136923 263.2406,51.7573846 C264.271,51.6010769 265.3574,51.4670989 266.4998,51.3554505 C267.6422,51.2438022 268.7958,51.187978 269.9606,51.187978 Z"/><path id="Shape" d="M302.9558,69.475978 C302.9558,72.5574725 303.6502,75.0360659 305.039,76.9117582 C306.4278,78.7874505 308.4886,79.7252967 311.2214,79.7252967 C312.1174,79.7252967 312.9462,79.6918022 313.7078,79.6248132 C314.4694,79.5578242 315.0966,79.4796703 315.5894,79.3903516 L315.5894,61.2363297 C314.9622,60.8343956 314.1446,60.4994505 313.1366,60.2314945 C312.1286,59.9635385 311.1094,59.8295604 310.079,59.8295604 C305.3302,59.8295604 302.9558,63.045033 302.9558,69.475978 Z M325.6022,86.2232308 C324.7062,86.4911868 323.6758,86.747978 322.511,86.9936044 C321.3462,87.2392308 320.1254,87.4513626 318.8486,87.63 C317.5718,87.8086374 316.2726,87.9537802 314.951,88.0654286 C313.6294,88.1770769 312.3638,88.2329011 311.1542,88.2329011 C308.2422,88.2329011 305.6438,87.8086374 303.359,86.9601099 C301.0742,86.1115824 299.1478,84.8946154 297.5798,83.3092088 C296.0118,81.7238022 294.8134,79.8034505 293.9846,77.5481538 C293.1558,75.2928571 292.7414,72.7584396 292.7414,69.9449011 C292.7414,67.0867033 293.0998,64.5076264 293.8166,62.2076703 C294.5334,59.9077143 295.5638,57.9538681 296.9078,56.3461319 C298.2518,54.7383956 299.8982,53.5102637 301.847,52.6617363 C303.7958,51.8132088 306.0246,51.3889451 308.5334,51.3889451 C309.9222,51.3889451 311.1654,51.5229231 312.263,51.7908791 C313.3606,52.0588352 314.4694,52.4384396 315.5894,52.9296923 L315.5894,36.9863077 L325.6022,35.3785714 L325.6022,86.2232308 Z"/><path id="Shape" d="M363.167,87.362044 C362.2262,85.8436264 361.1174,84.2023956 359.8406,82.4383516 C358.5638,80.6743077 357.175,78.9102637 355.6742,77.1462198 C354.1734,75.3821758 352.6166,73.6851209 351.0038,72.0550549 C349.391,70.424989 347.7782,68.9847253 346.1654,67.7342637 L346.1654,87.362044 L335.6822,87.362044 L335.6822,40.9386593 L346.1654,40.9386593 L346.1654,58.4897802 C348.8982,55.6315824 351.6422,52.6505714 354.3974,49.5467473 C357.1526,46.4429231 359.7174,43.5735604 362.0918,40.9386593 L374.5238,40.9386593 C371.343,44.690044 368.151,48.3074505 364.9478,51.7908791 C361.7446,55.2743077 358.3734,58.7800659 354.8342,62.3081538 C358.5526,65.3896484 362.1478,69.0517143 365.6198,73.2943516 C369.0918,77.536989 372.4182,82.2262198 375.599,87.362044 L363.167,87.362044 Z"/><path id="Shape" d="M408.863,86.1562418 C407.1606,86.6474945 404.9654,87.1052527 402.2774,87.5295165 C399.5894,87.9537802 396.767,88.1659121 393.8102,88.1659121 C390.8086,88.1659121 388.311,87.763978 386.3174,86.9601099 C384.3238,86.1562418 382.7446,85.0285934 381.5798,83.5771648 C380.415,82.1257363 379.5862,80.3951868 379.0934,78.3855165 C378.6006,76.3758462 378.3542,74.1652088 378.3542,71.7536044 L378.3542,52.1258242 L388.367,52.1258242 L388.367,70.5478022 C388.367,73.7632747 388.7926,76.0855604 389.6438,77.5146593 C390.495,78.9437582 392.0854,79.6583077 394.415,79.6583077 C395.1318,79.6583077 395.8934,79.6248132 396.6998,79.5578242 C397.5062,79.4908352 398.223,79.4126813 398.8502,79.3233626 L398.8502,52.1258242 L408.863,52.1258242 L408.863,86.1562418 Z"/><path id="Shape" d="M426.8054,69.475978 C426.8054,72.5574725 427.4998,75.0360659 428.8886,76.9117582 C430.2774,78.7874505 432.3382,79.7252967 435.071,79.7252967 C435.967,79.7252967 436.7958,79.6918022 437.5574,79.6248132 C438.319,79.5578242 438.9462,79.4796703 439.439,79.3903516 L439.439,61.2363297 C438.8118,60.8343956 437.9942,60.4994505 436.9862,60.2314945 C435.9782,59.9635385 434.959,59.8295604 433.9286,59.8295604 C429.1798,59.8295604 426.8054,63.045033 426.8054,69.475978 Z M449.4518,86.2232308 C448.5558,86.4911868 447.5254,86.747978 446.3606,86.9936044 C445.1958,87.2392308 443.975,87.4513626 442.6982,87.63 C441.4214,87.8086374 440.1222,87.9537802 438.8006,88.0654286 C437.479,88.1770769 436.2134,88.2329011 435.0038,88.2329011 C432.0918,88.2329011 429.4934,87.8086374 427.2086,86.9601099 C424.9238,86.1115824 422.9974,84.8946154 421.4294,83.3092088 C419.8614,81.7238022 418.663,79.8034505 417.8342,77.5481538 C417.0054,75.2928571 416.591,72.7584396 416.591,69.9449011 C416.591,67.0867033 416.9494,64.5076264 417.6662,62.2076703 C418.383,59.9077143 419.4134,57.9538681 420.7574,56.3461319 C422.1014,54.7383956 423.7478,53.5102637 425.6966,52.6617363 C427.6454,51.8132088 429.8742,51.3889451 432.383,51.3889451 C433.7718,51.3889451 435.015,51.5229231 436.1126,51.7908791 C437.2102,52.0588352 438.319,52.4384396 439.439,52.9296923 L439.439,36.9863077 L449.4518,35.3785714 L449.4518,86.2232308 Z"/><path id="Shape" d="M489.0326,86.1562418 C487.3302,86.6474945 485.135,87.1052527 482.447,87.5295165 C479.759,87.9537802 476.9366,88.1659121 473.9798,88.1659121 C470.9782,88.1659121 468.4806,87.763978 466.487,86.9601099 C464.4934,86.1562418 462.9142,85.0285934 461.7494,83.5771648 C460.5846,82.1257363 459.7558,80.3951868 459.263,78.3855165 C458.7702,76.3758462 458.5238,74.1652088 458.5238,71.7536044 L458.5238,52.1258242 L468.5366,52.1258242 L468.5366,70.5478022 C468.5366,73.7632747 468.9622,76.0855604 469.8134,77.5146593 C470.6646,78.9437582 472.255,79.6583077 474.5846,79.6583077 C475.3014,79.6583077 476.063,79.6248132 476.8694,79.5578242 C477.6758,79.4908352 478.3926,79.4126813 479.0198,79.3233626 L479.0198,52.1258242 L489.0326,52.1258242 L489.0326,86.1562418 Z"/></g></g></g></g></svg>