<?xml version="1.0" encoding="UTF-8"?>
<svg width="640px" height="360px" viewBox="0 0 640 360" version="1.1" xmlns="http://www.w3.org/2000/svg" xmlns:xlink="http://www.w3.org/1999/xlink">
    <!-- Generator: Sketch 41.1 (35376) - http://www.bohemiancoding.com/sketch -->
    <title>ship-webhooks</title>
    <desc>Created with Sketch.</desc>
    <defs>
        <linearGradient x1="50%" y1="100%" x2="50%" y2="8.71682191%" id="linearGradient-1">
            <stop stop-color="#FFFFFF" offset="0%"></stop>
            <stop stop-color="#F1F6FA" offset="100%"></stop>
        </linearGradient>
        <rect id="path-2" x="0" y="0" width="640" height="360"></rect>
    </defs>
    <g id="Ships" stroke="none" stroke-width="1" fill="none" fill-rule="evenodd">
        <g id="webhooks">
            <g id="ship-webhooks">
                <g id="Group">
                    <mask id="mask-3" fill="white">
                        <use xlink:href="#path-2"></use>
                    </mask>
                    <use id="Mask" fill="url(#linearGradient-1)" xlink:href="#path-2"></use>
                    <g id="Group-2" mask="url(#mask-3)">
                        <g transform="translate(86.000000, 115.000000)" id="Shape">
                            <path d="M65.3659468,54.5536066 C59.5641204,64.3151148 54.0055231,73.7682623 48.3312569,83.15 C46.874044,85.558459 46.1530046,87.5200656 47.3172616,90.5820328 C50.5311296,99.0397705 45.997338,107.270295 37.475669,109.504557 C29.4393773,111.61223 21.6095602,106.325738 20.0150579,97.7143607 C18.6021667,90.0919016 24.5120949,82.6198361 32.9083657,81.4285902 C33.6121088,81.3279672 34.3299051,81.3160656 35.5125394,81.2273443 C39.6268958,74.3222295 43.841787,67.2494098 48.2847731,59.7914098 C40.2517245,51.7967541 35.4703796,42.4507213 36.5286968,30.8704262 C37.2767616,22.6842623 40.4927917,15.6103607 46.3713704,9.81209836 C57.6301782,-1.29104918 74.8064815,-3.08927869 88.0630116,5.43337705 C100.795248,13.619541 106.626262,29.5655738 101.655738,43.2135082 C97.9078472,42.196459 94.1340116,41.1707541 89.9850625,40.0444262 C91.5460532,32.4565902 90.3915255,25.6423607 85.2783079,19.8051475 C81.900125,15.9511803 77.5652407,13.9311475 72.6357963,13.1867541 C62.754206,11.6925574 53.0520648,18.0469508 50.1733125,27.7543607 C46.9053935,38.7720328 51.8510532,47.7718361 65.3659468,54.5536066 Z" fill="#C73A63"></path>
                            <path d="M81.9347176,43.0100984 C86.0220486,50.2268197 90.1720787,57.5528197 94.2853542,64.8117377 C115.075502,58.3740328 130.750271,69.8926557 136.373729,82.224918 C143.165769,97.1214426 138.522794,114.765082 125.183025,123.955311 C111.490845,133.390066 94.1750903,131.777934 82.0439005,119.65882 C85.1356134,117.06859 88.2424606,114.466459 91.5622685,111.686885 C103.544278,119.454328 114.023671,119.088623 121.803762,109.89082 C128.437972,102.044393 128.294197,90.345082 121.467565,82.6631148 C113.589102,73.7985574 103.036199,73.5280656 90.2801806,82.0377377 C84.9885949,72.6419344 79.6051227,63.3207869 74.4810949,53.8568197 C72.7536273,50.6671803 70.8456296,48.8170164 66.9518009,48.1418689 C60.4483935,47.013377 56.2497176,41.4239344 55.9978403,35.1615082 C55.750287,28.9683279 59.3954815,23.3702295 65.0935301,21.1889836 C70.7375278,19.0282951 77.3609282,20.7724262 81.1574653,25.5752787 C84.2599884,29.4995738 85.2458773,33.9161639 83.6135394,38.7558033 C83.1595116,40.1050164 82.5714375,41.4109508 81.9347176,43.0100984 Z" fill="#4B4B4B"></path>
                            <path d="M91.7038819,102.007607 L66.6761412,102.007607 C64.2773611,111.882721 59.0960394,119.855738 50.1679074,124.925836 C43.2277685,128.866361 35.7471204,130.20259 27.785419,128.916131 C13.1268079,126.549869 1.14047454,113.342295 0.085400463,98.4695738 C-1.109125,81.6222623 10.4610162,66.6467541 25.8828264,63.282918 C26.9476296,67.1531148 28.0232431,71.0600984 29.0880463,74.9205574 C14.9385949,82.1459344 10.041581,91.2496066 14.0013519,102.632984 C17.4876366,112.650918 27.3897662,118.141902 38.1415764,116.018 C49.1214815,113.849738 54.6573773,104.716852 53.9817407,90.0594426 C64.3908681,90.0594426 74.8086435,89.9512459 85.2188519,90.112459 C89.2834815,90.1762951 92.4216782,89.7543279 95.4842037,86.1676066 C100.526074,80.2654754 109.805537,80.7978033 115.235493,86.3720984 C120.784361,92.0686557 120.518431,101.235082 114.646338,106.691443 C108.98072,111.956295 100.029887,111.674984 94.7296528,106.00223 C93.6399861,104.832623 92.7816574,103.444459 91.7038819,102.007607 Z" fill="#4A4A4A"></path>
                            <polygon fill="#4B4B4B" points="171.116583 51.3477377 180.731162 51.3477377 186.254086 77.4859016 191.908894 51.3477377 201.790484 51.3477377 191.277579 87.6423279 181.530035 87.6423279 175.839553 61.203377 170.084211 87.6423279 160.237213 87.6423279 150.057262 51.3477377 160.237213 51.3477377 165.893102 77.3863607"></polygon>
                            <path d="M228.178146,52.0834754 C230.707729,53.217377 232.796257,55.0069508 234.44481,57.4521967 C235.93013,59.6085574 236.893317,62.1100656 237.334373,64.9567213 C237.588412,66.6240328 237.693271,69.024918 237.645706,72.159377 L211.234262,72.159377 C211.382361,75.8001967 212.646072,78.3536393 215.027556,79.817541 C216.475039,80.7285574 218.217641,81.1829836 220.255361,81.1829836 C222.415236,81.1829836 224.168648,80.6279344 225.519921,79.518918 C226.257176,78.9184262 226.906868,78.0874754 227.47116,77.0206557 L237.151681,77.0206557 C236.89656,79.1737705 235.724736,81.3615082 233.636208,83.579541 C230.386667,87.11 225.840984,88.8746885 219.993755,88.8746885 C215.168088,88.8746885 210.909956,87.3859016 207.221521,84.4094098 C203.532005,81.4318361 201.687787,76.5878689 201.687787,69.8775082 C201.687787,63.5901967 203.352556,58.7689508 206.683174,55.4148525 C210.012711,52.0596721 214.334623,50.382623 219.651072,50.382623 C222.805484,50.381541 225.648563,50.9495738 228.178146,52.0834754 Z M213.994102,60.281541 C212.653639,61.6632131 211.810444,63.5360984 211.466681,65.8991148 L227.801951,65.8991148 C227.628988,63.3792131 226.787956,61.467377 225.276692,60.1636066 C223.765428,58.8587541 221.889861,58.2063279 219.653234,58.2063279 C217.219861,58.2074098 215.333484,58.8977049 213.994102,60.281541 Z" fill="#4B4B4B"></path>
                            <path d="M272.626384,55.7091475 C275.339741,59.1508852 276.695338,63.5901967 276.695338,69.0292459 C276.695338,74.667377 275.358118,79.3403934 272.681516,83.0472131 C270.005995,86.7551148 266.273238,88.6085246 261.481083,88.6085246 C258.470447,88.6085246 256.053289,88.0091148 254.224206,86.8102951 C253.131296,86.1005246 251.949743,84.8573443 250.680627,83.0818361 L250.680627,87.6434098 L241.331979,87.6434098 L241.331979,38.6281311 L250.813593,38.6281311 L250.813593,56.0759344 C252.018928,54.3891475 253.3475,53.1016066 254.798227,52.2133115 C256.518127,51.1042951 258.705028,50.5492459 261.360009,50.5492459 C266.156488,50.5492459 269.914109,52.2684918 272.626384,55.7091475 Z M264.701438,77.8191475 C266.065683,75.8445574 266.748887,73.2467541 266.748887,70.0279016 C266.748887,67.4528197 266.41269,65.3213443 265.741377,63.6356393 C264.466856,60.4384262 262.118884,58.8403607 258.697461,58.8403607 C255.230634,58.8403607 252.84915,60.4048852 251.553009,63.5350164 C250.881697,65.2001639 250.5455,67.3532787 250.5455,69.9954426 C250.5455,73.1028525 251.239514,75.6779344 252.626461,77.7206885 C254.012326,79.7634426 256.124637,80.7837377 258.965553,80.7837377 C261.425951,80.7826557 263.337192,79.7959016 264.701438,77.8191475 Z" fill="#4B4B4B"></path>
                            <path d="M307.511933,51.5479016 C309.332368,52.3258361 310.828498,53.5138361 311.99816,55.1140656 C312.992697,56.4697705 313.599148,57.8644262 313.820757,59.2969508 C314.042366,60.7294754 314.15263,63.0676066 314.15263,66.3113443 L314.15263,87.6412459 L304.472109,87.6412459 L304.472109,65.5409836 C304.472109,63.5847869 304.140236,62.0061967 303.479734,60.807377 C302.622486,59.1184262 300.99231,58.2734098 298.59353,58.2734098 C296.103944,58.2734098 294.217567,59.1119344 292.928993,60.7900656 C291.6415,62.4681967 290.997213,64.8625902 290.997213,67.9743279 L290.997213,87.6423279 L281.5156,87.6423279 L281.5156,38.7276721 L290.997213,38.7276721 L290.997213,56.0423934 C292.367944,53.9347213 293.951637,52.4632459 295.74937,51.6312131 C297.550347,50.7980984 299.444292,50.382623 301.433366,50.382623 C303.663507,50.381541 305.689336,50.7710492 307.511933,51.5479016 Z" fill="#4B4B4B"></path>
                            <path d="M351.163461,83.2019344 C348.103097,86.9834098 343.455799,88.8736066 337.223727,88.8736066 C330.990574,88.8736066 326.345437,86.9834098 323.282912,83.2019344 C320.22363,79.420459 318.692907,74.868623 318.692907,69.5442623 C318.692907,64.3107869 320.22363,59.7751803 323.282912,55.9374426 C326.344356,52.1007869 330.990574,50.182459 337.223727,50.182459 C343.455799,50.182459 348.102016,52.1007869 351.163461,55.9374426 C354.224905,59.7751803 355.754546,64.3107869 355.754546,69.5442623 C355.754546,74.868623 354.224905,79.420459 351.163461,83.2019344 Z M343.579035,77.9576393 C345.064354,75.9852131 345.808095,73.1807541 345.808095,69.5453443 C345.808095,65.9110164 345.064354,63.1119672 343.579035,61.1503607 C342.092634,59.1898361 339.964109,58.2074098 337.192377,58.2074098 C334.419565,58.2074098 332.284553,59.1887541 330.787343,61.1503607 C329.290132,63.1119672 328.542067,65.9099344 328.542067,69.5453443 C328.542067,73.1807541 329.290132,75.9852131 330.787343,77.9576393 C332.284553,79.9300656 334.418484,80.9157377 337.192377,80.9157377 C339.964109,80.9157377 342.092634,79.9300656 343.579035,77.9576393 Z" fill="#4B4B4B"></path>
                            <path d="M390.927646,83.2019344 C387.868363,86.9834098 383.221065,88.8736066 376.987912,88.8736066 C370.754759,88.8736066 366.110704,86.9834098 363.05034,83.2019344 C359.988896,79.420459 358.458174,74.868623 358.458174,69.5442623 C358.458174,64.3107869 359.988896,59.7751803 363.05034,55.9374426 C366.109623,52.1007869 370.754759,50.182459 376.987912,50.182459 C383.221065,50.182459 387.867282,52.1007869 390.927646,55.9374426 C393.98909,59.7751803 395.519812,64.3107869 395.519812,69.5442623 C395.519812,74.868623 393.98909,79.420459 390.927646,83.2019344 Z M383.344301,77.9576393 C384.828539,75.9852131 385.573361,73.1807541 385.573361,69.5453443 C385.573361,65.9110164 384.828539,63.1119672 383.344301,61.1503607 C381.8579,59.1898361 379.729375,58.2074098 376.957644,58.2074098 C374.184831,58.2074098 372.048738,59.1887541 370.551528,61.1503607 C369.054317,63.1119672 368.307333,65.9099344 368.307333,69.5453443 C368.307333,73.1807541 369.054317,75.9852131 370.551528,77.9576393 C372.048738,79.9300656 374.18375,80.9157377 376.957644,80.9157377 C379.729375,80.9157377 381.8579,79.9300656 383.344301,77.9576393 Z" fill="#4B4B4B"></path>
                            <polygon fill="#4B4B4B" points="400.217919 38.7276721 409.533056 38.7276721 409.533056 65.2055738 421.491282 51.5154426 433.281951 51.5154426 420.283785 65.0357049 433.784625 87.6434098 422.245833 87.6434098 413.460396 72.1366557 409.533056 76.2221639 409.533056 87.6434098 400.217919 87.6434098"></polygon>
                            <path d="M442.851127,76.054459 C443.052197,77.7423279 443.486766,78.9411475 444.154836,79.650918 C445.336389,80.9157377 447.518965,81.5486885 450.705808,81.5486885 C452.578132,81.5486885 454.065613,81.2717049 455.169333,80.7155738 C456.273053,80.1605246 456.824373,79.3284918 456.824373,78.2183934 C456.824373,77.1526557 456.381155,76.3433443 455.491477,75.7872131 C454.60288,75.2321639 451.296044,74.2778689 445.572051,72.9243279 C441.451208,71.9040328 438.548674,70.6262295 436.861204,69.0952459 C435.176977,67.5848197 434.333782,65.4111475 434.333782,62.5688197 C434.333782,59.2168852 435.651544,56.3366885 438.284905,53.9282295 C440.919347,51.5197705 444.623998,50.315541 449.403181,50.315541 C453.936972,50.315541 457.631894,51.2200656 460.489025,53.0291148 C463.345076,54.8392459 464.9839,57.9639672 465.406579,62.4032787 L455.924965,62.4032787 C455.790919,61.1817377 455.447155,60.216623 454.891512,59.5057705 C453.845086,58.2193115 452.065729,57.574459 449.552361,57.574459 C447.485454,57.574459 446.012025,57.8968852 445.133157,58.5406557 C444.25537,59.1855082 443.815396,59.9396393 443.815396,60.8052131 C443.815396,61.8936721 444.282396,62.6813443 445.216396,63.1693115 C446.150396,63.681082 449.449664,64.5574754 455.117444,65.8006557 C458.892361,66.6889508 461.723549,68.0316721 463.608845,69.8299016 C465.472521,71.6508525 466.404359,73.9251475 466.404359,76.6560328 C466.404359,80.2524918 465.063896,83.1889508 462.386213,85.4643279 C459.707449,87.7397049 455.568229,88.8768525 449.969634,88.8768525 C444.258613,88.8768525 440.040479,87.672623 437.319556,85.2641639 C434.59647,82.854623 433.235468,79.7872459 433.235468,76.056623 L442.851127,76.056623 L442.851127,76.054459 Z" fill="#4B4B4B"></path>
                        </g>
                    </g>
                </g>
            </g>
        </g>
    </g>
</svg>